<svg xmlns="http://www.w3.org/2000/svg" width="640" height="480" viewBox="0 0 640 480" fill="none">
  <defs>
    <linearGradient id="g" x1="80" y1="120" x2="540" y2="380" gradientUnits="userSpaceOnUse">
      <stop stop-color="#22c55e"/>
      <stop offset="1" stop-color="#16a34a"/>
    </linearGradient>
    <linearGradient id="y" x1="260" y1="120" x2="520" y2="220" gradientUnits="userSpaceOnUse">
      <stop stop-color="#fbbf24"/>
      <stop offset="1" stop-color="#f59e0b"/>
    </linearGradient>
  </defs>

  <!-- shadow -->
  <ellipse cx="320" cy="402" rx="170" ry="30" fill="#000" opacity="0.10"/>

  <!-- body -->
  <path d="M160 170c0-28 22-50 50-50h170c56 0 104 30 132 72l24 36c14 20 22 44 22 68v38c0 20-16 36-36 36H204c-24 0-44-20-44-44V170z" fill="url(#g)"/>
  <path d="M248 120h150c40 0 76 22 96 56l22 38H248V120z" fill="url(#y)"/>

  <!-- roof -->
  <path d="M190 120h238c22 0 40 18 40 40v18H150v-18c0-22 18-40 40-40z" fill="#111827" opacity="0.90"/>
  <rect x="150" y="160" width="358" height="22" rx="11" fill="#111827" opacity="0.85"/>

  <!-- windows -->
  <rect x="270" y="138" width="182" height="64" rx="16" fill="#0b0b16" opacity="0.22"/>
  <rect x="284" y="150" width="74" height="40" rx="12" fill="#0b0b16" opacity="0.18"/>
  <rect x="366" y="150" width="74" height="40" rx="12" fill="#0b0b16" opacity="0.18"/>

  <!-- door line -->
  <path d="M250 214h190" stroke="#0b0b16" stroke-opacity="0.16" stroke-width="6" stroke-linecap="round"/>
  <path d="M250 214v146" stroke="#0b0b16" stroke-opacity="0.14" stroke-width="6" stroke-linecap="round"/>

  <!-- bumper -->
  <rect x="178" y="326" width="340" height="34" rx="16" fill="#0b0b16" opacity="0.14"/>

  <!-- headlights -->
  <rect x="520" y="266" width="44" height="30" rx="12" fill="#fff" opacity="0.65"/>
  <rect x="512" y="306" width="52" height="18" rx="9" fill="#fff" opacity="0.35"/>

  <!-- wheels -->
  <g>
    <circle cx="244" cy="372" r="46" fill="#111827" opacity="0.88"/>
    <circle cx="244" cy="372" r="26" fill="#fff" opacity="0.75"/>
    <circle cx="244" cy="372" r="10" fill="#111827" opacity="0.55"/>
  </g>
  <g>
    <circle cx="454" cy="372" r="46" fill="#111827" opacity="0.88"/>
    <circle cx="454" cy="372" r="26" fill="#fff" opacity="0.75"/>
    <circle cx="454" cy="372" r="10" fill="#111827" opacity="0.55"/>
  </g>
</svg>

